<?xml version="1.0" standalone="no"?><svg xmlns="http://www.w3.org/2000/svg" viewBox="0 0 1440 320"><path fill="#e2edff" fill-opacity="0.98" d="M0,224L30,197.3C60,171,120,117,180,112C240,107,300,149,360,154.7C420,160,480,128,540,133.3C600,139,660,181,720,192C780,203,840,181,900,149.3C960,117,1020,75,1080,80C1140,85,1200,139,1260,138.7C1320,139,1380,85,1410,58.7L1440,32L1440,320L1410,320C1380,320,1320,320,1260,320C1200,320,1140,320,1080,320C1020,320,960,320,900,320C840,320,780,320,720,320C660,320,600,320,540,320C480,320,420,320,360,320C300,320,240,320,180,320C120,320,60,320,30,320L0,320Z"></path></svg>