<?xml version="1.0" standalone="no"?><svg xmlns="http://www.w3.org/2000/svg" viewBox="0 0 1440 320"><path fill="#e2edff" fill-opacity="0.98" d="M0,128L40,149.3C80,171,160,213,240,224C320,235,400,213,480,170.7C560,128,640,64,720,48C800,32,880,64,960,117.3C1040,171,1120,245,1200,266.7C1280,288,1360,256,1400,240L1440,224L1440,320L1400,320C1360,320,1280,320,1200,320C1120,320,1040,320,960,320C880,320,800,320,720,320C640,320,560,320,480,320C400,320,320,320,240,320C160,320,80,320,40,320L0,320Z"></path></svg>